<mxfile host="Electron" agent="Mozilla/5.0 (Macintosh; Intel Mac OS X 10_15_7) AppleWebKit/537.36 (KHTML, like Gecko) draw.io/26.1.1 Chrome/132.0.6834.210 Electron/34.3.3 Safari/537.36" version="26.1.1">
  <diagram name="Page-1" id="Qj-w3iLWWDn1EgG0T2l7">
    <mxGraphModel dx="1733" dy="575" grid="1" gridSize="10" guides="1" tooltips="1" connect="1" arrows="1" fold="1" page="1" pageScale="1" pageWidth="850" pageHeight="1100" math="0" shadow="0">
      <root>
        <mxCell id="0" />
        <mxCell id="1" parent="0" />
        <mxCell id="xlDrIMKf_6xmTZd-Tw91-1" value="CASHIER" style="rounded=0;whiteSpace=wrap;html=1;" vertex="1" parent="1">
          <mxGeometry x="120" y="260" width="140" height="40" as="geometry" />
        </mxCell>
        <mxCell id="xlDrIMKf_6xmTZd-Tw91-2" value="&lt;u&gt;Account&lt;/u&gt;" style="ellipse;whiteSpace=wrap;html=1;" vertex="1" parent="1">
          <mxGeometry x="60" y="190" width="80" height="40" as="geometry" />
        </mxCell>
        <mxCell id="xlDrIMKf_6xmTZd-Tw91-3" value="Password" style="ellipse;whiteSpace=wrap;html=1;" vertex="1" parent="1">
          <mxGeometry x="160" y="180" width="90" height="40" as="geometry" />
        </mxCell>
        <mxCell id="xlDrIMKf_6xmTZd-Tw91-4" value="Name" style="ellipse;whiteSpace=wrap;html=1;" vertex="1" parent="1">
          <mxGeometry x="260" y="190" width="90" height="40" as="geometry" />
        </mxCell>
        <mxCell id="xlDrIMKf_6xmTZd-Tw91-5" value="" style="endArrow=none;html=1;rounded=0;exitX=0.576;exitY=0.024;exitDx=0;exitDy=0;entryX=0.23;entryY=0.903;entryDx=0;entryDy=0;entryPerimeter=0;exitPerimeter=0;" edge="1" parent="1" source="xlDrIMKf_6xmTZd-Tw91-1" target="xlDrIMKf_6xmTZd-Tw91-4">
          <mxGeometry width="50" height="50" relative="1" as="geometry">
            <mxPoint x="240" y="270" as="sourcePoint" />
            <mxPoint x="280" y="230" as="targetPoint" />
          </mxGeometry>
        </mxCell>
        <mxCell id="xlDrIMKf_6xmTZd-Tw91-6" value="" style="endArrow=none;html=1;rounded=0;exitX=0.424;exitY=-0.016;exitDx=0;exitDy=0;exitPerimeter=0;" edge="1" parent="1" source="xlDrIMKf_6xmTZd-Tw91-1">
          <mxGeometry width="50" height="50" relative="1" as="geometry">
            <mxPoint x="150" y="270" as="sourcePoint" />
            <mxPoint x="200" y="220" as="targetPoint" />
          </mxGeometry>
        </mxCell>
        <mxCell id="xlDrIMKf_6xmTZd-Tw91-7" value="" style="endArrow=none;html=1;rounded=0;exitX=0.286;exitY=0;exitDx=0;exitDy=0;exitPerimeter=0;" edge="1" parent="1" source="xlDrIMKf_6xmTZd-Tw91-1">
          <mxGeometry width="50" height="50" relative="1" as="geometry">
            <mxPoint x="50" y="280" as="sourcePoint" />
            <mxPoint x="100" y="230" as="targetPoint" />
          </mxGeometry>
        </mxCell>
        <mxCell id="xlDrIMKf_6xmTZd-Tw91-8" value="RECEIPT" style="rounded=0;whiteSpace=wrap;html=1;" vertex="1" parent="1">
          <mxGeometry x="250" y="420" width="140" height="40" as="geometry" />
        </mxCell>
        <mxCell id="xlDrIMKf_6xmTZd-Tw91-9" value="PRODUCT" style="rounded=0;whiteSpace=wrap;html=1;" vertex="1" parent="1">
          <mxGeometry x="-50" y="330" width="140" height="40" as="geometry" />
        </mxCell>
        <mxCell id="xlDrIMKf_6xmTZd-Tw91-10" value="" style="endArrow=none;html=1;rounded=0;exitX=0.289;exitY=0.257;exitDx=0;exitDy=0;exitPerimeter=0;" edge="1" parent="1" source="xlDrIMKf_6xmTZd-Tw91-12">
          <mxGeometry width="50" height="50" relative="1" as="geometry">
            <mxPoint x="250" y="330" as="sourcePoint" />
            <mxPoint x="200" y="300" as="targetPoint" />
          </mxGeometry>
        </mxCell>
        <mxCell id="xlDrIMKf_6xmTZd-Tw91-12" value="CREATES" style="rhombus;whiteSpace=wrap;html=1;" vertex="1" parent="1">
          <mxGeometry x="220" y="330" width="80" height="50" as="geometry" />
        </mxCell>
        <mxCell id="xlDrIMKf_6xmTZd-Tw91-14" value="" style="endArrow=none;html=1;rounded=0;exitX=0.25;exitY=0;exitDx=0;exitDy=0;entryX=0;entryY=1;entryDx=0;entryDy=0;" edge="1" parent="1" source="xlDrIMKf_6xmTZd-Tw91-8">
          <mxGeometry width="50" height="50" relative="1" as="geometry">
            <mxPoint x="210" y="410" as="sourcePoint" />
            <mxPoint x="260" y="380" as="targetPoint" />
          </mxGeometry>
        </mxCell>
        <mxCell id="xlDrIMKf_6xmTZd-Tw91-15" value="" style="endArrow=none;html=1;rounded=0;entryX=0.552;entryY=0.922;entryDx=0;entryDy=0;entryPerimeter=0;exitX=0.302;exitY=-0.002;exitDx=0;exitDy=0;exitPerimeter=0;" edge="1" parent="1" source="xlDrIMKf_6xmTZd-Tw91-8" target="xlDrIMKf_6xmTZd-Tw91-12">
          <mxGeometry width="50" height="50" relative="1" as="geometry">
            <mxPoint x="220" y="400" as="sourcePoint" />
            <mxPoint x="270" y="350" as="targetPoint" />
          </mxGeometry>
        </mxCell>
        <mxCell id="xlDrIMKf_6xmTZd-Tw91-17" value="1" style="text;html=1;align=center;verticalAlign=middle;whiteSpace=wrap;rounded=0;" vertex="1" parent="1">
          <mxGeometry x="210" y="300" width="60" height="30" as="geometry" />
        </mxCell>
        <mxCell id="xlDrIMKf_6xmTZd-Tw91-18" value="N" style="text;html=1;align=center;verticalAlign=middle;whiteSpace=wrap;rounded=0;" vertex="1" parent="1">
          <mxGeometry x="260" y="375" width="60" height="30" as="geometry" />
        </mxCell>
        <mxCell id="xlDrIMKf_6xmTZd-Tw91-19" value="PURCHASES" style="rhombus;whiteSpace=wrap;html=1;" vertex="1" parent="1">
          <mxGeometry x="110" y="390" width="100" height="55" as="geometry" />
        </mxCell>
        <mxCell id="xlDrIMKf_6xmTZd-Tw91-20" value="" style="endArrow=none;html=1;rounded=0;exitX=0.886;exitY=0.608;exitDx=0;exitDy=0;entryX=0;entryY=0.5;entryDx=0;entryDy=0;exitPerimeter=0;" edge="1" parent="1" source="xlDrIMKf_6xmTZd-Tw91-19" target="xlDrIMKf_6xmTZd-Tw91-8">
          <mxGeometry width="50" height="50" relative="1" as="geometry">
            <mxPoint x="200" y="400" as="sourcePoint" />
            <mxPoint x="250" y="430" as="targetPoint" />
          </mxGeometry>
        </mxCell>
        <mxCell id="xlDrIMKf_6xmTZd-Tw91-21" value="" style="endArrow=none;html=1;rounded=0;entryX=-0.001;entryY=0.635;entryDx=0;entryDy=0;entryPerimeter=0;exitX=0.819;exitY=0.674;exitDx=0;exitDy=0;exitPerimeter=0;" edge="1" parent="1" source="xlDrIMKf_6xmTZd-Tw91-19" target="xlDrIMKf_6xmTZd-Tw91-8">
          <mxGeometry width="50" height="50" relative="1" as="geometry">
            <mxPoint x="200" y="440" as="sourcePoint" />
            <mxPoint x="250" y="390" as="targetPoint" />
          </mxGeometry>
        </mxCell>
        <mxCell id="xlDrIMKf_6xmTZd-Tw91-22" value="" style="endArrow=none;html=1;rounded=0;entryX=0;entryY=1;entryDx=0;entryDy=0;" edge="1" parent="1" target="xlDrIMKf_6xmTZd-Tw91-19">
          <mxGeometry width="50" height="50" relative="1" as="geometry">
            <mxPoint x="110" y="450" as="sourcePoint" />
            <mxPoint x="140" y="440" as="targetPoint" />
          </mxGeometry>
        </mxCell>
        <mxCell id="xlDrIMKf_6xmTZd-Tw91-23" value="Quantity" style="ellipse;whiteSpace=wrap;html=1;" vertex="1" parent="1">
          <mxGeometry x="50" y="445" width="90" height="40" as="geometry" />
        </mxCell>
        <mxCell id="xlDrIMKf_6xmTZd-Tw91-24" value="" style="endArrow=none;html=1;rounded=0;exitX=0.296;exitY=0.218;exitDx=0;exitDy=0;exitPerimeter=0;" edge="1" parent="1" source="xlDrIMKf_6xmTZd-Tw91-19">
          <mxGeometry width="50" height="50" relative="1" as="geometry">
            <mxPoint x="-20" y="420" as="sourcePoint" />
            <mxPoint x="30" y="370" as="targetPoint" />
          </mxGeometry>
        </mxCell>
        <mxCell id="xlDrIMKf_6xmTZd-Tw91-25" value="" style="shape=table;startSize=0;container=1;collapsible=0;childLayout=tableLayout;" vertex="1" parent="1">
          <mxGeometry x="390" y="220" width="120" height="160" as="geometry" />
        </mxCell>
        <mxCell id="xlDrIMKf_6xmTZd-Tw91-26" value="" style="shape=tableRow;horizontal=0;startSize=0;swimlaneHead=0;swimlaneBody=0;strokeColor=inherit;top=0;left=0;bottom=0;right=0;collapsible=0;dropTarget=0;fillColor=none;points=[[0,0.5],[1,0.5]];portConstraint=eastwest;" vertex="1" parent="xlDrIMKf_6xmTZd-Tw91-25">
          <mxGeometry width="120" height="40" as="geometry" />
        </mxCell>
        <mxCell id="xlDrIMKf_6xmTZd-Tw91-27" value="RECEIPT" style="shape=partialRectangle;html=1;whiteSpace=wrap;connectable=0;strokeColor=inherit;overflow=hidden;fillColor=none;top=0;left=0;bottom=0;right=0;pointerEvents=1;" vertex="1" parent="xlDrIMKf_6xmTZd-Tw91-26">
          <mxGeometry width="60" height="40" as="geometry">
            <mxRectangle width="60" height="40" as="alternateBounds" />
          </mxGeometry>
        </mxCell>
        <mxCell id="xlDrIMKf_6xmTZd-Tw91-28" value="CASHIER" style="shape=partialRectangle;html=1;whiteSpace=wrap;connectable=0;strokeColor=inherit;overflow=hidden;fillColor=none;top=0;left=0;bottom=0;right=0;pointerEvents=1;" vertex="1" parent="xlDrIMKf_6xmTZd-Tw91-26">
          <mxGeometry x="60" width="60" height="40" as="geometry">
            <mxRectangle width="60" height="40" as="alternateBounds" />
          </mxGeometry>
        </mxCell>
        <mxCell id="xlDrIMKf_6xmTZd-Tw91-29" value="" style="shape=tableRow;horizontal=0;startSize=0;swimlaneHead=0;swimlaneBody=0;strokeColor=inherit;top=0;left=0;bottom=0;right=0;collapsible=0;dropTarget=0;fillColor=none;points=[[0,0.5],[1,0.5]];portConstraint=eastwest;" vertex="1" parent="xlDrIMKf_6xmTZd-Tw91-25">
          <mxGeometry y="40" width="120" height="40" as="geometry" />
        </mxCell>
        <mxCell id="xlDrIMKf_6xmTZd-Tw91-30" value="R01" style="shape=partialRectangle;html=1;whiteSpace=wrap;connectable=0;strokeColor=inherit;overflow=hidden;fillColor=none;top=0;left=0;bottom=0;right=0;pointerEvents=1;" vertex="1" parent="xlDrIMKf_6xmTZd-Tw91-29">
          <mxGeometry width="60" height="40" as="geometry">
            <mxRectangle width="60" height="40" as="alternateBounds" />
          </mxGeometry>
        </mxCell>
        <mxCell id="xlDrIMKf_6xmTZd-Tw91-31" value="C01" style="shape=partialRectangle;html=1;whiteSpace=wrap;connectable=0;strokeColor=inherit;overflow=hidden;fillColor=none;top=0;left=0;bottom=0;right=0;pointerEvents=1;" vertex="1" parent="xlDrIMKf_6xmTZd-Tw91-29">
          <mxGeometry x="60" width="60" height="40" as="geometry">
            <mxRectangle width="60" height="40" as="alternateBounds" />
          </mxGeometry>
        </mxCell>
        <mxCell id="xlDrIMKf_6xmTZd-Tw91-35" style="shape=tableRow;horizontal=0;startSize=0;swimlaneHead=0;swimlaneBody=0;strokeColor=inherit;top=0;left=0;bottom=0;right=0;collapsible=0;dropTarget=0;fillColor=none;points=[[0,0.5],[1,0.5]];portConstraint=eastwest;" vertex="1" parent="xlDrIMKf_6xmTZd-Tw91-25">
          <mxGeometry y="80" width="120" height="40" as="geometry" />
        </mxCell>
        <mxCell id="xlDrIMKf_6xmTZd-Tw91-36" value="R02" style="shape=partialRectangle;html=1;whiteSpace=wrap;connectable=0;strokeColor=inherit;overflow=hidden;fillColor=none;top=0;left=0;bottom=0;right=0;pointerEvents=1;" vertex="1" parent="xlDrIMKf_6xmTZd-Tw91-35">
          <mxGeometry width="60" height="40" as="geometry">
            <mxRectangle width="60" height="40" as="alternateBounds" />
          </mxGeometry>
        </mxCell>
        <mxCell id="xlDrIMKf_6xmTZd-Tw91-37" value="C02" style="shape=partialRectangle;html=1;whiteSpace=wrap;connectable=0;strokeColor=inherit;overflow=hidden;fillColor=none;top=0;left=0;bottom=0;right=0;pointerEvents=1;" vertex="1" parent="xlDrIMKf_6xmTZd-Tw91-35">
          <mxGeometry x="60" width="60" height="40" as="geometry">
            <mxRectangle width="60" height="40" as="alternateBounds" />
          </mxGeometry>
        </mxCell>
        <mxCell id="xlDrIMKf_6xmTZd-Tw91-32" style="shape=tableRow;horizontal=0;startSize=0;swimlaneHead=0;swimlaneBody=0;strokeColor=inherit;top=0;left=0;bottom=0;right=0;collapsible=0;dropTarget=0;fillColor=none;points=[[0,0.5],[1,0.5]];portConstraint=eastwest;" vertex="1" parent="xlDrIMKf_6xmTZd-Tw91-25">
          <mxGeometry y="120" width="120" height="40" as="geometry" />
        </mxCell>
        <mxCell id="xlDrIMKf_6xmTZd-Tw91-33" value="R03" style="shape=partialRectangle;html=1;whiteSpace=wrap;connectable=0;strokeColor=inherit;overflow=hidden;fillColor=none;top=0;left=0;bottom=0;right=0;pointerEvents=1;" vertex="1" parent="xlDrIMKf_6xmTZd-Tw91-32">
          <mxGeometry width="60" height="40" as="geometry">
            <mxRectangle width="60" height="40" as="alternateBounds" />
          </mxGeometry>
        </mxCell>
        <mxCell id="xlDrIMKf_6xmTZd-Tw91-34" value="C01" style="shape=partialRectangle;html=1;whiteSpace=wrap;connectable=0;strokeColor=inherit;overflow=hidden;fillColor=none;top=0;left=0;bottom=0;right=0;pointerEvents=1;" vertex="1" parent="xlDrIMKf_6xmTZd-Tw91-32">
          <mxGeometry x="60" width="60" height="40" as="geometry">
            <mxRectangle width="60" height="40" as="alternateBounds" />
          </mxGeometry>
        </mxCell>
        <mxCell id="xlDrIMKf_6xmTZd-Tw91-38" value="" style="shape=table;startSize=0;container=1;collapsible=0;childLayout=tableLayout;" vertex="1" parent="1">
          <mxGeometry x="-340" y="365" width="225" height="200" as="geometry" />
        </mxCell>
        <mxCell id="xlDrIMKf_6xmTZd-Tw91-39" value="" style="shape=tableRow;horizontal=0;startSize=0;swimlaneHead=0;swimlaneBody=0;strokeColor=inherit;top=0;left=0;bottom=0;right=0;collapsible=0;dropTarget=0;fillColor=none;points=[[0,0.5],[1,0.5]];portConstraint=eastwest;" vertex="1" parent="xlDrIMKf_6xmTZd-Tw91-38">
          <mxGeometry width="225" height="40" as="geometry" />
        </mxCell>
        <mxCell id="xlDrIMKf_6xmTZd-Tw91-40" value="RECEIPT" style="shape=partialRectangle;html=1;whiteSpace=wrap;connectable=0;strokeColor=inherit;overflow=hidden;fillColor=none;top=0;left=0;bottom=0;right=0;pointerEvents=1;" vertex="1" parent="xlDrIMKf_6xmTZd-Tw91-39">
          <mxGeometry width="75" height="40" as="geometry">
            <mxRectangle width="75" height="40" as="alternateBounds" />
          </mxGeometry>
        </mxCell>
        <mxCell id="xlDrIMKf_6xmTZd-Tw91-41" value="PRODUCT" style="shape=partialRectangle;html=1;whiteSpace=wrap;connectable=0;strokeColor=inherit;overflow=hidden;fillColor=none;top=0;left=0;bottom=0;right=0;pointerEvents=1;" vertex="1" parent="xlDrIMKf_6xmTZd-Tw91-39">
          <mxGeometry x="75" width="75" height="40" as="geometry">
            <mxRectangle width="75" height="40" as="alternateBounds" />
          </mxGeometry>
        </mxCell>
        <mxCell id="xlDrIMKf_6xmTZd-Tw91-64" value="Quantity" style="shape=partialRectangle;html=1;whiteSpace=wrap;connectable=0;strokeColor=inherit;overflow=hidden;fillColor=none;top=0;left=0;bottom=0;right=0;pointerEvents=1;" vertex="1" parent="xlDrIMKf_6xmTZd-Tw91-39">
          <mxGeometry x="150" width="75" height="40" as="geometry">
            <mxRectangle width="75" height="40" as="alternateBounds" />
          </mxGeometry>
        </mxCell>
        <mxCell id="xlDrIMKf_6xmTZd-Tw91-42" value="" style="shape=tableRow;horizontal=0;startSize=0;swimlaneHead=0;swimlaneBody=0;strokeColor=inherit;top=0;left=0;bottom=0;right=0;collapsible=0;dropTarget=0;fillColor=none;points=[[0,0.5],[1,0.5]];portConstraint=eastwest;" vertex="1" parent="xlDrIMKf_6xmTZd-Tw91-38">
          <mxGeometry y="40" width="225" height="40" as="geometry" />
        </mxCell>
        <mxCell id="xlDrIMKf_6xmTZd-Tw91-43" value="R01" style="shape=partialRectangle;html=1;whiteSpace=wrap;connectable=0;strokeColor=inherit;overflow=hidden;fillColor=none;top=0;left=0;bottom=0;right=0;pointerEvents=1;" vertex="1" parent="xlDrIMKf_6xmTZd-Tw91-42">
          <mxGeometry width="75" height="40" as="geometry">
            <mxRectangle width="75" height="40" as="alternateBounds" />
          </mxGeometry>
        </mxCell>
        <mxCell id="xlDrIMKf_6xmTZd-Tw91-44" value="C01" style="shape=partialRectangle;html=1;whiteSpace=wrap;connectable=0;strokeColor=inherit;overflow=hidden;fillColor=none;top=0;left=0;bottom=0;right=0;pointerEvents=1;" vertex="1" parent="xlDrIMKf_6xmTZd-Tw91-42">
          <mxGeometry x="75" width="75" height="40" as="geometry">
            <mxRectangle width="75" height="40" as="alternateBounds" />
          </mxGeometry>
        </mxCell>
        <mxCell id="xlDrIMKf_6xmTZd-Tw91-65" value="1" style="shape=partialRectangle;html=1;whiteSpace=wrap;connectable=0;strokeColor=inherit;overflow=hidden;fillColor=none;top=0;left=0;bottom=0;right=0;pointerEvents=1;" vertex="1" parent="xlDrIMKf_6xmTZd-Tw91-42">
          <mxGeometry x="150" width="75" height="40" as="geometry">
            <mxRectangle width="75" height="40" as="alternateBounds" />
          </mxGeometry>
        </mxCell>
        <mxCell id="xlDrIMKf_6xmTZd-Tw91-45" style="shape=tableRow;horizontal=0;startSize=0;swimlaneHead=0;swimlaneBody=0;strokeColor=inherit;top=0;left=0;bottom=0;right=0;collapsible=0;dropTarget=0;fillColor=none;points=[[0,0.5],[1,0.5]];portConstraint=eastwest;" vertex="1" parent="xlDrIMKf_6xmTZd-Tw91-38">
          <mxGeometry y="80" width="225" height="40" as="geometry" />
        </mxCell>
        <mxCell id="xlDrIMKf_6xmTZd-Tw91-46" value="R01" style="shape=partialRectangle;html=1;whiteSpace=wrap;connectable=0;strokeColor=inherit;overflow=hidden;fillColor=none;top=0;left=0;bottom=0;right=0;pointerEvents=1;" vertex="1" parent="xlDrIMKf_6xmTZd-Tw91-45">
          <mxGeometry width="75" height="40" as="geometry">
            <mxRectangle width="75" height="40" as="alternateBounds" />
          </mxGeometry>
        </mxCell>
        <mxCell id="xlDrIMKf_6xmTZd-Tw91-47" value="C02" style="shape=partialRectangle;html=1;whiteSpace=wrap;connectable=0;strokeColor=inherit;overflow=hidden;fillColor=none;top=0;left=0;bottom=0;right=0;pointerEvents=1;" vertex="1" parent="xlDrIMKf_6xmTZd-Tw91-45">
          <mxGeometry x="75" width="75" height="40" as="geometry">
            <mxRectangle width="75" height="40" as="alternateBounds" />
          </mxGeometry>
        </mxCell>
        <mxCell id="xlDrIMKf_6xmTZd-Tw91-66" value="2" style="shape=partialRectangle;html=1;whiteSpace=wrap;connectable=0;strokeColor=inherit;overflow=hidden;fillColor=none;top=0;left=0;bottom=0;right=0;pointerEvents=1;" vertex="1" parent="xlDrIMKf_6xmTZd-Tw91-45">
          <mxGeometry x="150" width="75" height="40" as="geometry">
            <mxRectangle width="75" height="40" as="alternateBounds" />
          </mxGeometry>
        </mxCell>
        <mxCell id="xlDrIMKf_6xmTZd-Tw91-48" style="shape=tableRow;horizontal=0;startSize=0;swimlaneHead=0;swimlaneBody=0;strokeColor=inherit;top=0;left=0;bottom=0;right=0;collapsible=0;dropTarget=0;fillColor=none;points=[[0,0.5],[1,0.5]];portConstraint=eastwest;" vertex="1" parent="xlDrIMKf_6xmTZd-Tw91-38">
          <mxGeometry y="120" width="225" height="40" as="geometry" />
        </mxCell>
        <mxCell id="xlDrIMKf_6xmTZd-Tw91-49" value="R01" style="shape=partialRectangle;html=1;whiteSpace=wrap;connectable=0;strokeColor=inherit;overflow=hidden;fillColor=none;top=0;left=0;bottom=0;right=0;pointerEvents=1;" vertex="1" parent="xlDrIMKf_6xmTZd-Tw91-48">
          <mxGeometry width="75" height="40" as="geometry">
            <mxRectangle width="75" height="40" as="alternateBounds" />
          </mxGeometry>
        </mxCell>
        <mxCell id="xlDrIMKf_6xmTZd-Tw91-50" value="C03" style="shape=partialRectangle;html=1;whiteSpace=wrap;connectable=0;strokeColor=inherit;overflow=hidden;fillColor=none;top=0;left=0;bottom=0;right=0;pointerEvents=1;" vertex="1" parent="xlDrIMKf_6xmTZd-Tw91-48">
          <mxGeometry x="75" width="75" height="40" as="geometry">
            <mxRectangle width="75" height="40" as="alternateBounds" />
          </mxGeometry>
        </mxCell>
        <mxCell id="xlDrIMKf_6xmTZd-Tw91-67" value="2" style="shape=partialRectangle;html=1;whiteSpace=wrap;connectable=0;strokeColor=inherit;overflow=hidden;fillColor=none;top=0;left=0;bottom=0;right=0;pointerEvents=1;" vertex="1" parent="xlDrIMKf_6xmTZd-Tw91-48">
          <mxGeometry x="150" width="75" height="40" as="geometry">
            <mxRectangle width="75" height="40" as="alternateBounds" />
          </mxGeometry>
        </mxCell>
        <mxCell id="xlDrIMKf_6xmTZd-Tw91-68" style="shape=tableRow;horizontal=0;startSize=0;swimlaneHead=0;swimlaneBody=0;strokeColor=inherit;top=0;left=0;bottom=0;right=0;collapsible=0;dropTarget=0;fillColor=none;points=[[0,0.5],[1,0.5]];portConstraint=eastwest;" vertex="1" parent="xlDrIMKf_6xmTZd-Tw91-38">
          <mxGeometry y="160" width="225" height="40" as="geometry" />
        </mxCell>
        <mxCell id="xlDrIMKf_6xmTZd-Tw91-69" value="R02" style="shape=partialRectangle;html=1;whiteSpace=wrap;connectable=0;strokeColor=inherit;overflow=hidden;fillColor=none;top=0;left=0;bottom=0;right=0;pointerEvents=1;" vertex="1" parent="xlDrIMKf_6xmTZd-Tw91-68">
          <mxGeometry width="75" height="40" as="geometry">
            <mxRectangle width="75" height="40" as="alternateBounds" />
          </mxGeometry>
        </mxCell>
        <mxCell id="xlDrIMKf_6xmTZd-Tw91-70" value="C01" style="shape=partialRectangle;html=1;whiteSpace=wrap;connectable=0;strokeColor=inherit;overflow=hidden;fillColor=none;top=0;left=0;bottom=0;right=0;pointerEvents=1;" vertex="1" parent="xlDrIMKf_6xmTZd-Tw91-68">
          <mxGeometry x="75" width="75" height="40" as="geometry">
            <mxRectangle width="75" height="40" as="alternateBounds" />
          </mxGeometry>
        </mxCell>
        <mxCell id="xlDrIMKf_6xmTZd-Tw91-71" value="2" style="shape=partialRectangle;html=1;whiteSpace=wrap;connectable=0;strokeColor=inherit;overflow=hidden;fillColor=none;top=0;left=0;bottom=0;right=0;pointerEvents=1;" vertex="1" parent="xlDrIMKf_6xmTZd-Tw91-68">
          <mxGeometry x="150" width="75" height="40" as="geometry">
            <mxRectangle width="75" height="40" as="alternateBounds" />
          </mxGeometry>
        </mxCell>
        <mxCell id="xlDrIMKf_6xmTZd-Tw91-72" value="N" style="text;html=1;align=center;verticalAlign=middle;whiteSpace=wrap;rounded=0;" vertex="1" parent="1">
          <mxGeometry x="80" y="360" width="60" height="30" as="geometry" />
        </mxCell>
        <mxCell id="xlDrIMKf_6xmTZd-Tw91-73" value="M" style="text;html=1;align=center;verticalAlign=middle;whiteSpace=wrap;rounded=0;" vertex="1" parent="1">
          <mxGeometry x="200" y="405" width="60" height="30" as="geometry" />
        </mxCell>
        <mxCell id="xlDrIMKf_6xmTZd-Tw91-74" value="&lt;u&gt;ID&lt;/u&gt;" style="ellipse;whiteSpace=wrap;html=1;" vertex="1" parent="1">
          <mxGeometry x="230" y="500" width="80" height="40" as="geometry" />
        </mxCell>
        <mxCell id="xlDrIMKf_6xmTZd-Tw91-75" value="Date Created" style="ellipse;whiteSpace=wrap;html=1;" vertex="1" parent="1">
          <mxGeometry x="320" y="500" width="90" height="40" as="geometry" />
        </mxCell>
        <mxCell id="xlDrIMKf_6xmTZd-Tw91-76" value="" style="endArrow=none;html=1;rounded=0;" edge="1" parent="1">
          <mxGeometry width="50" height="50" relative="1" as="geometry">
            <mxPoint x="270" y="500" as="sourcePoint" />
            <mxPoint x="315" y="460" as="targetPoint" />
          </mxGeometry>
        </mxCell>
        <mxCell id="xlDrIMKf_6xmTZd-Tw91-77" value="" style="endArrow=none;html=1;rounded=0;exitX=0.403;exitY=0.019;exitDx=0;exitDy=0;exitPerimeter=0;" edge="1" parent="1" source="xlDrIMKf_6xmTZd-Tw91-75">
          <mxGeometry width="50" height="50" relative="1" as="geometry">
            <mxPoint x="370" y="500" as="sourcePoint" />
            <mxPoint x="330" y="460" as="targetPoint" />
          </mxGeometry>
        </mxCell>
        <mxCell id="xlDrIMKf_6xmTZd-Tw91-78" value="" style="endArrow=none;html=1;rounded=0;entryX=0.155;entryY=0.003;entryDx=0;entryDy=0;entryPerimeter=0;exitX=0.5;exitY=1;exitDx=0;exitDy=0;" edge="1" parent="1" target="xlDrIMKf_6xmTZd-Tw91-9">
          <mxGeometry width="50" height="50" relative="1" as="geometry">
            <mxPoint x="-160" y="310" as="sourcePoint" />
            <mxPoint y="325" as="targetPoint" />
          </mxGeometry>
        </mxCell>
        <mxCell id="xlDrIMKf_6xmTZd-Tw91-80" value="Price" style="ellipse;whiteSpace=wrap;html=1;" vertex="1" parent="1">
          <mxGeometry x="-70" y="250" width="90" height="30" as="geometry" />
        </mxCell>
        <mxCell id="xlDrIMKf_6xmTZd-Tw91-81" value="Name" style="ellipse;whiteSpace=wrap;html=1;" vertex="1" parent="1">
          <mxGeometry x="-170" y="250" width="90" height="30" as="geometry" />
        </mxCell>
        <mxCell id="xlDrIMKf_6xmTZd-Tw91-82" value="" style="endArrow=none;html=1;rounded=0;exitX=0.345;exitY=0.017;exitDx=0;exitDy=0;exitPerimeter=0;entryX=0.5;entryY=1;entryDx=0;entryDy=0;" edge="1" parent="1" source="xlDrIMKf_6xmTZd-Tw91-9" target="xlDrIMKf_6xmTZd-Tw91-81">
          <mxGeometry width="50" height="50" relative="1" as="geometry">
            <mxPoint x="-80" y="300" as="sourcePoint" />
            <mxPoint x="-30" y="250" as="targetPoint" />
          </mxGeometry>
        </mxCell>
        <mxCell id="xlDrIMKf_6xmTZd-Tw91-83" value="" style="endArrow=none;html=1;rounded=0;exitX=0.424;exitY=0.019;exitDx=0;exitDy=0;entryX=0.5;entryY=1;entryDx=0;entryDy=0;exitPerimeter=0;" edge="1" parent="1" source="xlDrIMKf_6xmTZd-Tw91-9" target="xlDrIMKf_6xmTZd-Tw91-80">
          <mxGeometry width="50" height="50" relative="1" as="geometry">
            <mxPoint y="340" as="sourcePoint" />
            <mxPoint x="50" y="290" as="targetPoint" />
          </mxGeometry>
        </mxCell>
        <mxCell id="xlDrIMKf_6xmTZd-Tw91-84" value="" style="endArrow=none;html=1;rounded=0;entryX=0.698;entryY=1.019;entryDx=0;entryDy=0;entryPerimeter=0;" edge="1" parent="1" source="xlDrIMKf_6xmTZd-Tw91-85" target="xlDrIMKf_6xmTZd-Tw91-8">
          <mxGeometry width="50" height="50" relative="1" as="geometry">
            <mxPoint x="440" y="490" as="sourcePoint" />
            <mxPoint x="385" y="460" as="targetPoint" />
          </mxGeometry>
        </mxCell>
        <mxCell id="xlDrIMKf_6xmTZd-Tw91-85" value="Total Price" style="ellipse;whiteSpace=wrap;html=1;dashed=1;dashPattern=12 12;" vertex="1" parent="1">
          <mxGeometry x="440" y="500" width="90" height="40" as="geometry" />
        </mxCell>
        <mxCell id="xlDrIMKf_6xmTZd-Tw91-87" value="Product Price" style="ellipse;whiteSpace=wrap;html=1;dashed=1;dashPattern=12 12;" vertex="1" parent="1">
          <mxGeometry x="20" y="270" width="90" height="30" as="geometry" />
        </mxCell>
        <mxCell id="xlDrIMKf_6xmTZd-Tw91-88" value="" style="shape=table;startSize=0;container=1;collapsible=0;childLayout=tableLayout;" vertex="1" parent="1">
          <mxGeometry x="-85" y="620" width="305" height="80" as="geometry" />
        </mxCell>
        <mxCell id="xlDrIMKf_6xmTZd-Tw91-89" value="" style="shape=tableRow;horizontal=0;startSize=0;swimlaneHead=0;swimlaneBody=0;strokeColor=inherit;top=0;left=0;bottom=0;right=0;collapsible=0;dropTarget=0;fillColor=none;points=[[0,0.5],[1,0.5]];portConstraint=eastwest;" vertex="1" parent="xlDrIMKf_6xmTZd-Tw91-88">
          <mxGeometry width="305" height="40" as="geometry" />
        </mxCell>
        <mxCell id="xlDrIMKf_6xmTZd-Tw91-90" value="&lt;u&gt;ID&lt;/u&gt;" style="shape=partialRectangle;html=1;whiteSpace=wrap;connectable=0;strokeColor=inherit;overflow=hidden;fillColor=none;top=0;left=0;bottom=0;right=0;pointerEvents=1;" vertex="1" parent="xlDrIMKf_6xmTZd-Tw91-89">
          <mxGeometry width="75" height="40" as="geometry">
            <mxRectangle width="75" height="40" as="alternateBounds" />
          </mxGeometry>
        </mxCell>
        <mxCell id="xlDrIMKf_6xmTZd-Tw91-91" value="Date Created" style="shape=partialRectangle;html=1;whiteSpace=wrap;connectable=0;strokeColor=inherit;overflow=hidden;fillColor=none;top=0;left=0;bottom=0;right=0;pointerEvents=1;" vertex="1" parent="xlDrIMKf_6xmTZd-Tw91-89">
          <mxGeometry x="75" width="115" height="40" as="geometry">
            <mxRectangle width="115" height="40" as="alternateBounds" />
          </mxGeometry>
        </mxCell>
        <mxCell id="xlDrIMKf_6xmTZd-Tw91-150" value="Total Price" style="shape=partialRectangle;html=1;whiteSpace=wrap;connectable=0;strokeColor=inherit;overflow=hidden;fillColor=none;top=0;left=0;bottom=0;right=0;pointerEvents=1;" vertex="1" parent="xlDrIMKf_6xmTZd-Tw91-89">
          <mxGeometry x="190" width="115" height="40" as="geometry">
            <mxRectangle width="115" height="40" as="alternateBounds" />
          </mxGeometry>
        </mxCell>
        <mxCell id="xlDrIMKf_6xmTZd-Tw91-93" value="" style="shape=tableRow;horizontal=0;startSize=0;swimlaneHead=0;swimlaneBody=0;strokeColor=inherit;top=0;left=0;bottom=0;right=0;collapsible=0;dropTarget=0;fillColor=none;points=[[0,0.5],[1,0.5]];portConstraint=eastwest;" vertex="1" parent="xlDrIMKf_6xmTZd-Tw91-88">
          <mxGeometry y="40" width="305" height="40" as="geometry" />
        </mxCell>
        <mxCell id="xlDrIMKf_6xmTZd-Tw91-94" value="001" style="shape=partialRectangle;html=1;whiteSpace=wrap;connectable=0;strokeColor=inherit;overflow=hidden;fillColor=none;top=0;left=0;bottom=0;right=0;pointerEvents=1;" vertex="1" parent="xlDrIMKf_6xmTZd-Tw91-93">
          <mxGeometry width="75" height="40" as="geometry">
            <mxRectangle width="75" height="40" as="alternateBounds" />
          </mxGeometry>
        </mxCell>
        <mxCell id="xlDrIMKf_6xmTZd-Tw91-95" value="22/10/2024" style="shape=partialRectangle;html=1;whiteSpace=wrap;connectable=0;strokeColor=inherit;overflow=hidden;fillColor=none;top=0;left=0;bottom=0;right=0;pointerEvents=1;" vertex="1" parent="xlDrIMKf_6xmTZd-Tw91-93">
          <mxGeometry x="75" width="115" height="40" as="geometry">
            <mxRectangle width="115" height="40" as="alternateBounds" />
          </mxGeometry>
        </mxCell>
        <mxCell id="xlDrIMKf_6xmTZd-Tw91-151" value="x" style="shape=partialRectangle;html=1;whiteSpace=wrap;connectable=0;strokeColor=inherit;overflow=hidden;fillColor=none;top=0;left=0;bottom=0;right=0;pointerEvents=1;" vertex="1" parent="xlDrIMKf_6xmTZd-Tw91-93">
          <mxGeometry x="190" width="115" height="40" as="geometry">
            <mxRectangle width="115" height="40" as="alternateBounds" />
          </mxGeometry>
        </mxCell>
        <mxCell id="xlDrIMKf_6xmTZd-Tw91-109" value="RECEIPT" style="text;strokeColor=none;fillColor=none;align=left;verticalAlign=middle;spacingLeft=4;spacingRight=4;overflow=hidden;points=[[0,0.5],[1,0.5]];portConstraint=eastwest;rotatable=0;whiteSpace=wrap;html=1;" vertex="1" parent="1">
          <mxGeometry x="-85" y="580" width="80" height="30" as="geometry" />
        </mxCell>
        <mxCell id="xlDrIMKf_6xmTZd-Tw91-111" value="&lt;u&gt;ID&lt;/u&gt;" style="ellipse;whiteSpace=wrap;html=1;" vertex="1" parent="1">
          <mxGeometry x="-230" y="290" width="80" height="40" as="geometry" />
        </mxCell>
        <mxCell id="xlDrIMKf_6xmTZd-Tw91-112" value="" style="endArrow=none;html=1;rounded=0;entryX=0.428;entryY=1.051;entryDx=0;entryDy=0;entryPerimeter=0;" edge="1" parent="1" target="xlDrIMKf_6xmTZd-Tw91-87">
          <mxGeometry width="50" height="50" relative="1" as="geometry">
            <mxPoint x="25" y="330" as="sourcePoint" />
            <mxPoint x="60" y="310" as="targetPoint" />
          </mxGeometry>
        </mxCell>
        <mxCell id="xlDrIMKf_6xmTZd-Tw91-113" value="RECEIPT purchases PRODUCT" style="text;strokeColor=none;fillColor=none;align=left;verticalAlign=middle;spacingLeft=4;spacingRight=4;overflow=hidden;points=[[0,0.5],[1,0.5]];portConstraint=eastwest;rotatable=0;whiteSpace=wrap;html=1;" vertex="1" parent="1">
          <mxGeometry x="240" y="580" width="250" height="30" as="geometry" />
        </mxCell>
        <mxCell id="xlDrIMKf_6xmTZd-Tw91-114" value="" style="shape=table;startSize=0;container=1;collapsible=0;childLayout=tableLayout;" vertex="1" parent="1">
          <mxGeometry x="240" y="620" width="410" height="200" as="geometry" />
        </mxCell>
        <mxCell id="xlDrIMKf_6xmTZd-Tw91-115" value="" style="shape=tableRow;horizontal=0;startSize=0;swimlaneHead=0;swimlaneBody=0;strokeColor=inherit;top=0;left=0;bottom=0;right=0;collapsible=0;dropTarget=0;fillColor=none;points=[[0,0.5],[1,0.5]];portConstraint=eastwest;" vertex="1" parent="xlDrIMKf_6xmTZd-Tw91-114">
          <mxGeometry width="410" height="40" as="geometry" />
        </mxCell>
        <mxCell id="xlDrIMKf_6xmTZd-Tw91-117" value="PRODUCT" style="shape=partialRectangle;html=1;whiteSpace=wrap;connectable=0;strokeColor=inherit;overflow=hidden;fillColor=none;top=0;left=0;bottom=0;right=0;pointerEvents=1;" vertex="1" parent="xlDrIMKf_6xmTZd-Tw91-115">
          <mxGeometry width="82" height="40" as="geometry">
            <mxRectangle width="82" height="40" as="alternateBounds" />
          </mxGeometry>
        </mxCell>
        <mxCell id="xlDrIMKf_6xmTZd-Tw91-135" value="Name" style="shape=partialRectangle;html=1;whiteSpace=wrap;connectable=0;strokeColor=inherit;overflow=hidden;fillColor=none;top=0;left=0;bottom=0;right=0;pointerEvents=1;" vertex="1" parent="xlDrIMKf_6xmTZd-Tw91-115">
          <mxGeometry x="82" width="82" height="40" as="geometry">
            <mxRectangle width="82" height="40" as="alternateBounds" />
          </mxGeometry>
        </mxCell>
        <mxCell id="xlDrIMKf_6xmTZd-Tw91-140" value="Price" style="shape=partialRectangle;html=1;whiteSpace=wrap;connectable=0;strokeColor=inherit;overflow=hidden;fillColor=none;top=0;left=0;bottom=0;right=0;pointerEvents=1;" vertex="1" parent="xlDrIMKf_6xmTZd-Tw91-115">
          <mxGeometry x="164" width="82" height="40" as="geometry">
            <mxRectangle width="82" height="40" as="alternateBounds" />
          </mxGeometry>
        </mxCell>
        <mxCell id="xlDrIMKf_6xmTZd-Tw91-118" value="Quantity" style="shape=partialRectangle;html=1;whiteSpace=wrap;connectable=0;strokeColor=inherit;overflow=hidden;fillColor=none;top=0;left=0;bottom=0;right=0;pointerEvents=1;" vertex="1" parent="xlDrIMKf_6xmTZd-Tw91-115">
          <mxGeometry x="246" width="82" height="40" as="geometry">
            <mxRectangle width="82" height="40" as="alternateBounds" />
          </mxGeometry>
        </mxCell>
        <mxCell id="xlDrIMKf_6xmTZd-Tw91-145" value="Product Price" style="shape=partialRectangle;html=1;whiteSpace=wrap;connectable=0;strokeColor=inherit;overflow=hidden;fillColor=none;top=0;left=0;bottom=0;right=0;pointerEvents=1;" vertex="1" parent="xlDrIMKf_6xmTZd-Tw91-115">
          <mxGeometry x="328" width="82" height="40" as="geometry">
            <mxRectangle width="82" height="40" as="alternateBounds" />
          </mxGeometry>
        </mxCell>
        <mxCell id="xlDrIMKf_6xmTZd-Tw91-119" value="" style="shape=tableRow;horizontal=0;startSize=0;swimlaneHead=0;swimlaneBody=0;strokeColor=inherit;top=0;left=0;bottom=0;right=0;collapsible=0;dropTarget=0;fillColor=none;points=[[0,0.5],[1,0.5]];portConstraint=eastwest;" vertex="1" parent="xlDrIMKf_6xmTZd-Tw91-114">
          <mxGeometry y="40" width="410" height="40" as="geometry" />
        </mxCell>
        <mxCell id="xlDrIMKf_6xmTZd-Tw91-121" value="C01" style="shape=partialRectangle;html=1;whiteSpace=wrap;connectable=0;strokeColor=inherit;overflow=hidden;fillColor=none;top=0;left=0;bottom=0;right=0;pointerEvents=1;" vertex="1" parent="xlDrIMKf_6xmTZd-Tw91-119">
          <mxGeometry width="82" height="40" as="geometry">
            <mxRectangle width="82" height="40" as="alternateBounds" />
          </mxGeometry>
        </mxCell>
        <mxCell id="xlDrIMKf_6xmTZd-Tw91-136" value="..." style="shape=partialRectangle;html=1;whiteSpace=wrap;connectable=0;strokeColor=inherit;overflow=hidden;fillColor=none;top=0;left=0;bottom=0;right=0;pointerEvents=1;" vertex="1" parent="xlDrIMKf_6xmTZd-Tw91-119">
          <mxGeometry x="82" width="82" height="40" as="geometry">
            <mxRectangle width="82" height="40" as="alternateBounds" />
          </mxGeometry>
        </mxCell>
        <mxCell id="xlDrIMKf_6xmTZd-Tw91-141" value="12.99" style="shape=partialRectangle;html=1;whiteSpace=wrap;connectable=0;strokeColor=inherit;overflow=hidden;fillColor=none;top=0;left=0;bottom=0;right=0;pointerEvents=1;" vertex="1" parent="xlDrIMKf_6xmTZd-Tw91-119">
          <mxGeometry x="164" width="82" height="40" as="geometry">
            <mxRectangle width="82" height="40" as="alternateBounds" />
          </mxGeometry>
        </mxCell>
        <mxCell id="xlDrIMKf_6xmTZd-Tw91-122" value="1" style="shape=partialRectangle;html=1;whiteSpace=wrap;connectable=0;strokeColor=inherit;overflow=hidden;fillColor=none;top=0;left=0;bottom=0;right=0;pointerEvents=1;" vertex="1" parent="xlDrIMKf_6xmTZd-Tw91-119">
          <mxGeometry x="246" width="82" height="40" as="geometry">
            <mxRectangle width="82" height="40" as="alternateBounds" />
          </mxGeometry>
        </mxCell>
        <mxCell id="xlDrIMKf_6xmTZd-Tw91-146" value="x" style="shape=partialRectangle;html=1;whiteSpace=wrap;connectable=0;strokeColor=inherit;overflow=hidden;fillColor=none;top=0;left=0;bottom=0;right=0;pointerEvents=1;" vertex="1" parent="xlDrIMKf_6xmTZd-Tw91-119">
          <mxGeometry x="328" width="82" height="40" as="geometry">
            <mxRectangle width="82" height="40" as="alternateBounds" />
          </mxGeometry>
        </mxCell>
        <mxCell id="xlDrIMKf_6xmTZd-Tw91-123" style="shape=tableRow;horizontal=0;startSize=0;swimlaneHead=0;swimlaneBody=0;strokeColor=inherit;top=0;left=0;bottom=0;right=0;collapsible=0;dropTarget=0;fillColor=none;points=[[0,0.5],[1,0.5]];portConstraint=eastwest;" vertex="1" parent="xlDrIMKf_6xmTZd-Tw91-114">
          <mxGeometry y="80" width="410" height="40" as="geometry" />
        </mxCell>
        <mxCell id="xlDrIMKf_6xmTZd-Tw91-125" value="C02" style="shape=partialRectangle;html=1;whiteSpace=wrap;connectable=0;strokeColor=inherit;overflow=hidden;fillColor=none;top=0;left=0;bottom=0;right=0;pointerEvents=1;" vertex="1" parent="xlDrIMKf_6xmTZd-Tw91-123">
          <mxGeometry width="82" height="40" as="geometry">
            <mxRectangle width="82" height="40" as="alternateBounds" />
          </mxGeometry>
        </mxCell>
        <mxCell id="xlDrIMKf_6xmTZd-Tw91-137" value="..." style="shape=partialRectangle;html=1;whiteSpace=wrap;connectable=0;strokeColor=inherit;overflow=hidden;fillColor=none;top=0;left=0;bottom=0;right=0;pointerEvents=1;" vertex="1" parent="xlDrIMKf_6xmTZd-Tw91-123">
          <mxGeometry x="82" width="82" height="40" as="geometry">
            <mxRectangle width="82" height="40" as="alternateBounds" />
          </mxGeometry>
        </mxCell>
        <mxCell id="xlDrIMKf_6xmTZd-Tw91-142" value="5.99" style="shape=partialRectangle;html=1;whiteSpace=wrap;connectable=0;strokeColor=inherit;overflow=hidden;fillColor=none;top=0;left=0;bottom=0;right=0;pointerEvents=1;" vertex="1" parent="xlDrIMKf_6xmTZd-Tw91-123">
          <mxGeometry x="164" width="82" height="40" as="geometry">
            <mxRectangle width="82" height="40" as="alternateBounds" />
          </mxGeometry>
        </mxCell>
        <mxCell id="xlDrIMKf_6xmTZd-Tw91-126" value="2" style="shape=partialRectangle;html=1;whiteSpace=wrap;connectable=0;strokeColor=inherit;overflow=hidden;fillColor=none;top=0;left=0;bottom=0;right=0;pointerEvents=1;" vertex="1" parent="xlDrIMKf_6xmTZd-Tw91-123">
          <mxGeometry x="246" width="82" height="40" as="geometry">
            <mxRectangle width="82" height="40" as="alternateBounds" />
          </mxGeometry>
        </mxCell>
        <mxCell id="xlDrIMKf_6xmTZd-Tw91-147" value="x" style="shape=partialRectangle;html=1;whiteSpace=wrap;connectable=0;strokeColor=inherit;overflow=hidden;fillColor=none;top=0;left=0;bottom=0;right=0;pointerEvents=1;" vertex="1" parent="xlDrIMKf_6xmTZd-Tw91-123">
          <mxGeometry x="328" width="82" height="40" as="geometry">
            <mxRectangle width="82" height="40" as="alternateBounds" />
          </mxGeometry>
        </mxCell>
        <mxCell id="xlDrIMKf_6xmTZd-Tw91-127" style="shape=tableRow;horizontal=0;startSize=0;swimlaneHead=0;swimlaneBody=0;strokeColor=inherit;top=0;left=0;bottom=0;right=0;collapsible=0;dropTarget=0;fillColor=none;points=[[0,0.5],[1,0.5]];portConstraint=eastwest;" vertex="1" parent="xlDrIMKf_6xmTZd-Tw91-114">
          <mxGeometry y="120" width="410" height="40" as="geometry" />
        </mxCell>
        <mxCell id="xlDrIMKf_6xmTZd-Tw91-129" value="C03" style="shape=partialRectangle;html=1;whiteSpace=wrap;connectable=0;strokeColor=inherit;overflow=hidden;fillColor=none;top=0;left=0;bottom=0;right=0;pointerEvents=1;" vertex="1" parent="xlDrIMKf_6xmTZd-Tw91-127">
          <mxGeometry width="82" height="40" as="geometry">
            <mxRectangle width="82" height="40" as="alternateBounds" />
          </mxGeometry>
        </mxCell>
        <mxCell id="xlDrIMKf_6xmTZd-Tw91-138" value="..." style="shape=partialRectangle;html=1;whiteSpace=wrap;connectable=0;strokeColor=inherit;overflow=hidden;fillColor=none;top=0;left=0;bottom=0;right=0;pointerEvents=1;" vertex="1" parent="xlDrIMKf_6xmTZd-Tw91-127">
          <mxGeometry x="82" width="82" height="40" as="geometry">
            <mxRectangle width="82" height="40" as="alternateBounds" />
          </mxGeometry>
        </mxCell>
        <mxCell id="xlDrIMKf_6xmTZd-Tw91-143" value="5.99" style="shape=partialRectangle;html=1;whiteSpace=wrap;connectable=0;strokeColor=inherit;overflow=hidden;fillColor=none;top=0;left=0;bottom=0;right=0;pointerEvents=1;" vertex="1" parent="xlDrIMKf_6xmTZd-Tw91-127">
          <mxGeometry x="164" width="82" height="40" as="geometry">
            <mxRectangle width="82" height="40" as="alternateBounds" />
          </mxGeometry>
        </mxCell>
        <mxCell id="xlDrIMKf_6xmTZd-Tw91-130" value="2" style="shape=partialRectangle;html=1;whiteSpace=wrap;connectable=0;strokeColor=inherit;overflow=hidden;fillColor=none;top=0;left=0;bottom=0;right=0;pointerEvents=1;" vertex="1" parent="xlDrIMKf_6xmTZd-Tw91-127">
          <mxGeometry x="246" width="82" height="40" as="geometry">
            <mxRectangle width="82" height="40" as="alternateBounds" />
          </mxGeometry>
        </mxCell>
        <mxCell id="xlDrIMKf_6xmTZd-Tw91-148" value="x" style="shape=partialRectangle;html=1;whiteSpace=wrap;connectable=0;strokeColor=inherit;overflow=hidden;fillColor=none;top=0;left=0;bottom=0;right=0;pointerEvents=1;" vertex="1" parent="xlDrIMKf_6xmTZd-Tw91-127">
          <mxGeometry x="328" width="82" height="40" as="geometry">
            <mxRectangle width="82" height="40" as="alternateBounds" />
          </mxGeometry>
        </mxCell>
        <mxCell id="xlDrIMKf_6xmTZd-Tw91-131" style="shape=tableRow;horizontal=0;startSize=0;swimlaneHead=0;swimlaneBody=0;strokeColor=inherit;top=0;left=0;bottom=0;right=0;collapsible=0;dropTarget=0;fillColor=none;points=[[0,0.5],[1,0.5]];portConstraint=eastwest;" vertex="1" parent="xlDrIMKf_6xmTZd-Tw91-114">
          <mxGeometry y="160" width="410" height="40" as="geometry" />
        </mxCell>
        <mxCell id="xlDrIMKf_6xmTZd-Tw91-133" value="C04" style="shape=partialRectangle;html=1;whiteSpace=wrap;connectable=0;strokeColor=inherit;overflow=hidden;fillColor=none;top=0;left=0;bottom=0;right=0;pointerEvents=1;" vertex="1" parent="xlDrIMKf_6xmTZd-Tw91-131">
          <mxGeometry width="82" height="40" as="geometry">
            <mxRectangle width="82" height="40" as="alternateBounds" />
          </mxGeometry>
        </mxCell>
        <mxCell id="xlDrIMKf_6xmTZd-Tw91-139" value="..." style="shape=partialRectangle;html=1;whiteSpace=wrap;connectable=0;strokeColor=inherit;overflow=hidden;fillColor=none;top=0;left=0;bottom=0;right=0;pointerEvents=1;" vertex="1" parent="xlDrIMKf_6xmTZd-Tw91-131">
          <mxGeometry x="82" width="82" height="40" as="geometry">
            <mxRectangle width="82" height="40" as="alternateBounds" />
          </mxGeometry>
        </mxCell>
        <mxCell id="xlDrIMKf_6xmTZd-Tw91-144" value="6.99" style="shape=partialRectangle;html=1;whiteSpace=wrap;connectable=0;strokeColor=inherit;overflow=hidden;fillColor=none;top=0;left=0;bottom=0;right=0;pointerEvents=1;" vertex="1" parent="xlDrIMKf_6xmTZd-Tw91-131">
          <mxGeometry x="164" width="82" height="40" as="geometry">
            <mxRectangle width="82" height="40" as="alternateBounds" />
          </mxGeometry>
        </mxCell>
        <mxCell id="xlDrIMKf_6xmTZd-Tw91-134" value="2" style="shape=partialRectangle;html=1;whiteSpace=wrap;connectable=0;strokeColor=inherit;overflow=hidden;fillColor=none;top=0;left=0;bottom=0;right=0;pointerEvents=1;" vertex="1" parent="xlDrIMKf_6xmTZd-Tw91-131">
          <mxGeometry x="246" width="82" height="40" as="geometry">
            <mxRectangle width="82" height="40" as="alternateBounds" />
          </mxGeometry>
        </mxCell>
        <mxCell id="xlDrIMKf_6xmTZd-Tw91-149" value="x" style="shape=partialRectangle;html=1;whiteSpace=wrap;connectable=0;strokeColor=inherit;overflow=hidden;fillColor=none;top=0;left=0;bottom=0;right=0;pointerEvents=1;" vertex="1" parent="xlDrIMKf_6xmTZd-Tw91-131">
          <mxGeometry x="328" width="82" height="40" as="geometry">
            <mxRectangle width="82" height="40" as="alternateBounds" />
          </mxGeometry>
        </mxCell>
      </root>
    </mxGraphModel>
  </diagram>
</mxfile>
